<mxfile host="Electron" modified="2024-03-17T05:00:44.581Z" agent="Mozilla/5.0 (Windows NT 10.0; Win64; x64) AppleWebKit/537.36 (KHTML, like Gecko) draw.io/24.0.4 Chrome/120.0.6099.109 Electron/28.1.0 Safari/537.36" etag="SuagHBa3Ra71lxw1f7WN" version="24.0.4" type="device">
  <diagram name="第 1 页" id="9dLdQXAplC7oLp4CW0Km">
    <mxGraphModel dx="1034" dy="836" grid="1" gridSize="10" guides="1" tooltips="1" connect="1" arrows="1" fold="1" page="0" pageScale="1" pageWidth="827" pageHeight="1169" math="0" shadow="0">
      <root>
        <mxCell id="0" />
        <mxCell id="1" parent="0" />
        <mxCell id="tYviClEyW7NVSN_mE2I3-4" style="edgeStyle=orthogonalEdgeStyle;rounded=0;orthogonalLoop=1;jettySize=auto;html=1;exitX=0.5;exitY=1;exitDx=0;exitDy=0;entryX=0.5;entryY=0;entryDx=0;entryDy=0;shape=flexArrow;startArrow=block;fontSize=15;fontStyle=1;fillColor=#e1d5e7;strokeColor=#9673a6;" parent="1" source="tYviClEyW7NVSN_mE2I3-3" target="tYviClEyW7NVSN_mE2I3-2" edge="1">
          <mxGeometry relative="1" as="geometry" />
        </mxCell>
        <mxCell id="tYviClEyW7NVSN_mE2I3-3" value="MCU" style="rounded=0;whiteSpace=wrap;html=1;fillColor=#d5e8d4;strokeColor=#82b366;verticalAlign=top;fontSize=15;fontStyle=1" parent="1" vertex="1">
          <mxGeometry x="460" y="280" width="240" height="210" as="geometry" />
        </mxCell>
        <mxCell id="tYviClEyW7NVSN_mE2I3-1" value="Flash&lt;div style=&quot;font-size: 15px;&quot;&gt;驱动&lt;/div&gt;" style="rounded=0;whiteSpace=wrap;html=1;fillColor=#fff2cc;strokeColor=#d6b656;fontSize=15;fontStyle=1" parent="1" vertex="1">
          <mxGeometry x="520" y="410" width="120" height="60" as="geometry" />
        </mxCell>
        <mxCell id="tYviClEyW7NVSN_mE2I3-2" value="&lt;div style=&quot;font-size: 15px;&quot;&gt;Macronix&lt;/div&gt;Flash" style="rounded=0;whiteSpace=wrap;html=1;fillColor=#d5e8d4;strokeColor=#82b366;fontSize=15;fontStyle=1" parent="1" vertex="1">
          <mxGeometry x="460" y="560" width="240" height="60" as="geometry" />
        </mxCell>
        <mxCell id="tYviClEyW7NVSN_mE2I3-8" style="edgeStyle=orthogonalEdgeStyle;rounded=0;orthogonalLoop=1;jettySize=auto;html=1;exitX=0.5;exitY=1;exitDx=0;exitDy=0;entryX=0.5;entryY=0;entryDx=0;entryDy=0;startArrow=classic;startFill=1;" parent="1" source="tYviClEyW7NVSN_mE2I3-7" target="tYviClEyW7NVSN_mE2I3-1" edge="1">
          <mxGeometry relative="1" as="geometry" />
        </mxCell>
        <mxCell id="tYviClEyW7NVSN_mE2I3-7" value="上层应用" style="rounded=0;whiteSpace=wrap;html=1;fillColor=#fff2cc;strokeColor=#d6b656;fontSize=15;fontStyle=1" parent="1" vertex="1">
          <mxGeometry x="520" y="320" width="120" height="60" as="geometry" />
        </mxCell>
      </root>
    </mxGraphModel>
  </diagram>
</mxfile>
